<mxfile host="65bd71144e">
    <diagram id="KjrErTVRP9iZeqJHBAPl" name="Page-1">
        <mxGraphModel dx="495" dy="441" grid="1" gridSize="10" guides="1" tooltips="1" connect="1" arrows="1" fold="1" page="1" pageScale="1" pageWidth="850" pageHeight="1100" math="0" shadow="0">
            <root>
                <mxCell id="0"/>
                <mxCell id="1" parent="0"/>
                <mxCell id="62" style="edgeStyle=none;html=1;exitX=1;exitY=0.5;exitDx=0;exitDy=0;endArrow=none;endFill=0;fillColor=#f8cecc;strokeColor=#b85450;entryX=0.7;entryY=0;entryDx=0;entryDy=0;entryPerimeter=0;" parent="1" source="2" target="25" edge="1">
                    <mxGeometry relative="1" as="geometry">
                        <mxPoint x="210" y="170" as="targetPoint"/>
                        <Array as="points">
                            <mxPoint x="560" y="170"/>
                            <mxPoint x="510" y="170"/>
                            <mxPoint x="460" y="170"/>
                        </Array>
                    </mxGeometry>
                </mxCell>
                <mxCell id="2" value="" style="pointerEvents=1;verticalLabelPosition=bottom;shadow=0;dashed=0;align=center;html=1;verticalAlign=top;shape=mxgraph.electrical.miscellaneous.batteryStack;flipH=0;flipV=0;rotation=-90;" parent="1" vertex="1">
                    <mxGeometry x="510" y="226" width="100" height="60" as="geometry"/>
                </mxCell>
                <mxCell id="74" style="edgeStyle=none;html=1;exitX=0;exitY=0.57;exitDx=0;exitDy=0;exitPerimeter=0;entryX=0.7;entryY=1;entryDx=0;entryDy=0;entryPerimeter=0;endArrow=none;endFill=0;" parent="1" source="4" target="61" edge="1">
                    <mxGeometry relative="1" as="geometry">
                        <Array as="points">
                            <mxPoint x="249" y="479"/>
                        </Array>
                    </mxGeometry>
                </mxCell>
                <mxCell id="4" value="" style="verticalLabelPosition=bottom;shadow=0;dashed=0;align=center;html=1;verticalAlign=top;shape=mxgraph.electrical.opto_electronics.led_2;pointerEvents=1;direction=south;rotation=-90;" parent="1" vertex="1">
                    <mxGeometry x="355" y="424" width="70" height="100" as="geometry"/>
                </mxCell>
                <mxCell id="63" style="edgeStyle=none;html=1;exitX=1;exitY=0.115;exitDx=0;exitDy=0;exitPerimeter=0;endArrow=none;endFill=0;fillColor=#f8cecc;strokeColor=#b85450;" parent="1" source="5" edge="1">
                    <mxGeometry relative="1" as="geometry">
                        <mxPoint x="460" y="170" as="targetPoint"/>
                        <Array as="points">
                            <mxPoint x="460" y="203"/>
                        </Array>
                    </mxGeometry>
                </mxCell>
                <mxCell id="5" value="" style="pointerEvents=1;verticalLabelPosition=bottom;shadow=0;dashed=0;align=center;html=1;verticalAlign=top;shape=mxgraph.electrical.electro-mechanical.2-way_switch;rotation=-180;flipH=1;flipV=1;" parent="1" vertex="1">
                    <mxGeometry x="370" y="200" width="75" height="26" as="geometry"/>
                </mxCell>
                <mxCell id="17" value="+" style="text;html=1;align=center;verticalAlign=middle;resizable=0;points=[];autosize=1;strokeColor=none;fillColor=none;" parent="1" vertex="1">
                    <mxGeometry x="600" y="193" width="20" height="20" as="geometry"/>
                </mxCell>
                <mxCell id="18" value="-" style="text;html=1;align=center;verticalAlign=middle;resizable=0;points=[];autosize=1;strokeColor=none;fillColor=none;" parent="1" vertex="1">
                    <mxGeometry x="570" y="293" width="20" height="20" as="geometry"/>
                </mxCell>
                <mxCell id="22" value="LED1&lt;br&gt;" style="text;html=1;align=center;verticalAlign=middle;resizable=0;points=[];autosize=1;strokeColor=none;fillColor=none;" parent="1" vertex="1">
                    <mxGeometry x="365" y="424" width="50" height="20" as="geometry"/>
                </mxCell>
                <mxCell id="23" value="5V" style="text;html=1;align=center;verticalAlign=middle;resizable=0;points=[];autosize=1;strokeColor=none;fillColor=none;" parent="1" vertex="1">
                    <mxGeometry x="600" y="246" width="30" height="20" as="geometry"/>
                </mxCell>
                <mxCell id="24" value="Cole Porter - TEJ3M - Unit #4-09" style="text;html=1;align=center;verticalAlign=middle;resizable=0;points=[];autosize=1;strokeColor=none;fillColor=none;" parent="1" vertex="1">
                    <mxGeometry x="250" y="530" width="190" height="20" as="geometry"/>
                </mxCell>
                <mxCell id="25" value="" style="verticalLabelPosition=bottom;shadow=0;dashed=0;align=center;html=1;verticalAlign=top;shape=mxgraph.electrical.transistors.npn_transistor_1;flipH=1;" parent="1" vertex="1">
                    <mxGeometry x="180" y="173" width="95" height="100" as="geometry"/>
                </mxCell>
                <mxCell id="28" value="" style="pointerEvents=1;verticalLabelPosition=bottom;shadow=0;dashed=0;align=center;html=1;verticalAlign=top;shape=mxgraph.electrical.resistors.resistor_1;" parent="1" vertex="1">
                    <mxGeometry x="270" y="213" width="100" height="20" as="geometry"/>
                </mxCell>
                <mxCell id="30" value="4.7K&amp;nbsp;Ω&amp;nbsp;" style="text;html=1;align=center;verticalAlign=middle;resizable=0;points=[];autosize=1;strokeColor=none;fillColor=none;" parent="1" vertex="1">
                    <mxGeometry x="330" y="340" width="60" height="20" as="geometry"/>
                </mxCell>
                <mxCell id="40" value="INPUT A" style="text;html=1;align=center;verticalAlign=middle;resizable=0;points=[];autosize=1;strokeColor=none;fillColor=none;" parent="1" vertex="1">
                    <mxGeometry x="340" y="180" width="60" height="20" as="geometry"/>
                </mxCell>
                <mxCell id="66" style="edgeStyle=none;html=1;exitX=1;exitY=0.5;exitDx=0;exitDy=0;exitPerimeter=0;entryX=0;entryY=0.885;entryDx=0;entryDy=0;entryPerimeter=0;endArrow=none;endFill=0;" parent="1" source="47" target="64" edge="1">
                    <mxGeometry relative="1" as="geometry"/>
                </mxCell>
                <mxCell id="78" style="edgeStyle=none;html=1;exitX=0;exitY=0.5;exitDx=0;exitDy=0;exitPerimeter=0;entryX=0;entryY=0.5;entryDx=0;entryDy=0;entryPerimeter=0;endArrow=none;endFill=0;" edge="1" parent="1" source="47" target="61">
                    <mxGeometry relative="1" as="geometry"/>
                </mxCell>
                <mxCell id="47" value="" style="pointerEvents=1;verticalLabelPosition=bottom;shadow=0;dashed=0;align=center;html=1;verticalAlign=top;shape=mxgraph.electrical.resistors.resistor_1;direction=south;rotation=-90;" parent="1" vertex="1">
                    <mxGeometry x="350" y="324" width="20" height="100" as="geometry"/>
                </mxCell>
                <mxCell id="49" value="220&amp;nbsp;&lt;span&gt;Ω&lt;br&gt;&lt;br&gt;&lt;/span&gt;" style="text;html=1;align=center;verticalAlign=middle;resizable=0;points=[];autosize=1;strokeColor=none;fillColor=none;" parent="1" vertex="1">
                    <mxGeometry x="460" y="494" width="50" height="30" as="geometry"/>
                </mxCell>
                <mxCell id="61" value="" style="verticalLabelPosition=bottom;shadow=0;dashed=0;align=center;html=1;verticalAlign=top;shape=mxgraph.electrical.transistors.npn_transistor_1;flipH=1;" parent="1" vertex="1">
                    <mxGeometry x="180" y="273" width="95" height="100" as="geometry"/>
                </mxCell>
                <mxCell id="71" style="edgeStyle=none;html=1;exitX=1;exitY=0.115;exitDx=0;exitDy=0;exitPerimeter=0;endArrow=none;endFill=0;fillColor=#f8cecc;strokeColor=#b85450;" parent="1" source="64" edge="1">
                    <mxGeometry relative="1" as="geometry">
                        <mxPoint x="500" y="170" as="targetPoint"/>
                    </mxGeometry>
                </mxCell>
                <mxCell id="72" style="edgeStyle=none;html=1;exitX=1;exitY=0.885;exitDx=0;exitDy=0;exitPerimeter=0;entryX=1;entryY=0.885;entryDx=0;entryDy=0;entryPerimeter=0;endArrow=none;endFill=0;" parent="1" source="64" target="5" edge="1">
                    <mxGeometry relative="1" as="geometry">
                        <Array as="points">
                            <mxPoint x="520" y="373"/>
                            <mxPoint x="520" y="223"/>
                        </Array>
                    </mxGeometry>
                </mxCell>
                <mxCell id="73" style="edgeStyle=none;html=1;exitX=1;exitY=0.885;exitDx=0;exitDy=0;exitPerimeter=0;entryX=1;entryY=0.5;entryDx=0;entryDy=0;entryPerimeter=0;endArrow=none;endFill=0;" parent="1" source="64" target="69" edge="1">
                    <mxGeometry relative="1" as="geometry">
                        <Array as="points">
                            <mxPoint x="500" y="410"/>
                            <mxPoint x="540" y="410"/>
                        </Array>
                    </mxGeometry>
                </mxCell>
                <mxCell id="64" value="" style="pointerEvents=1;verticalLabelPosition=bottom;shadow=0;dashed=0;align=center;html=1;verticalAlign=top;shape=mxgraph.electrical.electro-mechanical.2-way_switch;rotation=-180;flipH=1;flipV=1;" parent="1" vertex="1">
                    <mxGeometry x="425" y="350" width="75" height="26" as="geometry"/>
                </mxCell>
                <mxCell id="65" style="edgeStyle=none;html=1;exitX=0;exitY=0.885;exitDx=0;exitDy=0;exitPerimeter=0;entryX=0.095;entryY=0.869;entryDx=0;entryDy=0;entryPerimeter=0;endArrow=none;endFill=0;" parent="1" source="64" target="64" edge="1">
                    <mxGeometry relative="1" as="geometry"/>
                </mxCell>
                <mxCell id="67" value="INPUT B" style="text;html=1;align=center;verticalAlign=middle;resizable=0;points=[];autosize=1;strokeColor=none;fillColor=none;" parent="1" vertex="1">
                    <mxGeometry x="380" y="320" width="60" height="20" as="geometry"/>
                </mxCell>
                <mxCell id="68" value="4.7K&amp;nbsp;Ω&amp;nbsp;" style="text;html=1;align=center;verticalAlign=middle;resizable=0;points=[];autosize=1;strokeColor=none;fillColor=none;" parent="1" vertex="1">
                    <mxGeometry x="290" y="193" width="60" height="20" as="geometry"/>
                </mxCell>
                <mxCell id="70" style="edgeStyle=none;html=1;exitX=1;exitY=0.5;exitDx=0;exitDy=0;exitPerimeter=0;entryX=0;entryY=0.5;entryDx=0;entryDy=0;endArrow=none;endFill=0;" parent="1" source="69" target="2" edge="1">
                    <mxGeometry relative="1" as="geometry">
                        <Array as="points">
                            <mxPoint x="560" y="480"/>
                        </Array>
                    </mxGeometry>
                </mxCell>
                <mxCell id="69" value="" style="pointerEvents=1;verticalLabelPosition=bottom;shadow=0;dashed=0;align=center;html=1;verticalAlign=top;shape=mxgraph.electrical.resistors.resistor_1;direction=south;rotation=-90;" parent="1" vertex="1">
                    <mxGeometry x="480" y="430" width="20" height="100" as="geometry"/>
                </mxCell>
                <mxCell id="79" value="" style="shape=image;verticalLabelPosition=bottom;labelBackgroundColor=#ffffff;verticalAlign=top;aspect=fixed;imageAspect=0;image=data:image/png,iVBORw0KGgoAAAANSUhEUgAAASIAAAECCAIAAADVcE3XAAAgAElEQVR4nOy9WXAbV3b4fbsbaDSAxr4DBEBwX0BSIiVZq0f2WJ7Nk5qyZzJJppJU5SGv85S35CmPeZmpyluqUlM1mSSTeCYTT7zKlmXZkkhtFHeCBFcQIIi9sTW60cv/4XxC8aMkmrYIUJT79yQ1G923u+8599xzzz0Hk2UZKSgoNBP8qBugoPDio4iZgkLTUe3+TyKROKp2KCi8YGg0GpPJpFKpEELY7rnZT37yk6NrlYLCC8XIyMjf/M3feL1etGc0e/vtt51OZ0dHh1qtPqK2KSgce1iWXV1dLZVKjXFLteeMsbGxv/u7vzObzS1vm4LCC0IsFvunf/qn3Uf2ipnVah0aGrLb7S1slYLCC4XBYDAajaIoNo4onkYFhaajiJmCQtNRxExBoekoYqag0HQUMVNQaDqKmCkoNB1FzBQUmo4iZgoKTUcRMwWFpqOImYJC01HETEGh6eyNafzayLJcr9dLpVImk9FqtVarVaPR7I70r9VqlUqlWCzyPG+32w0Gg1qtxjAMISRJEs/z+XxeFEWTyURRlFqtLhaLDMMUCgWWZXffiCAIk8lkNptNJtOX7iSQZZnjuHw+XywWS6WSJElwnCRJu91uMpn0ej2OH1TXVCoVhmFUKpVardbr9SRJfoUX9NWRZVmSpFwux3Ec3A7H8XK5XCqVrFYrTdM4jrMsm8/noT17XvgTqdfrHMft7Oxks9mnnaPT6dxuN03TGo0GPlArEQSBYZh6va5SqbRarV6v3+dkURRZls3lcmq12mw2q9Vq2N/1vHFobRIEoVAoTE5Ovvvuu52dna+88orP57PZbI0TUqnUwsLCvXv30un097///RMnTlgsFugWPM9nMplr165VKpVz584FAgGLxbK0tDQ+Pn7r1q21tbXdN9JqtefOnTt37tzZs2e/NMRZFMVMJnP9+vW7d+9OT0/XajU47nQ6v/e977300kv9/f0URR3wGTc3N8fHx41Go8Ph6O/vdzgcX+EFfXUkSWJZdmJiIhaL9ff3u1wurVY7MzPz4MGDV199dWRkRK1Wb2xsfPbZZzabrb+/3+v17n7hT6RYLCYSif/+7/++evXq087p7u7+6U9/OjIy4vV6Wy9m1Wr1/v37mUzGZDJ1dHT09fU9rQ2SJHEct76+fu3aNZvNdu7cObvdbjQaW9zgg3BoYsZxXCwW29jYyGazOp1uZWWFpundX51l2UwmMzs7G41G/X6/3W7X6/UgZpIk1Wq1eDxeKpUGBwd5nkcIMQyTSCQKhQJCyO12a7VaOBPH8VKptLS0ZDQaOzo6PB4PQRCPt0cURY7jotHo0tLS2tpavV73+XySJMmyLIoiSZLr6+sGg8FsNjudzv1VZoNyuRyPx1mWValU0Mhmg+O4wWCwWCww6nIcl06nV1ZWTp48KYoijuOVSmVzc5Pn+ba2tnq9/qUXJAhCo9E4HI5QKIQQKpfLyWQStI/L5QLF4fP5DAbDUQ0LOI7TNF2v1w8ynIqiWCqVNjY2OI6rVquCILSsnV+JQ3uVtVotGo1mMpnOzk6VSrW8vBwMBh8/jWGYzc3N+fl5v9/f3t6+f/+mKGp0dNTtdr/yyitOpxM9sig+/vjj1dVVsELtdvsTxaxerxcKhU8++WRyctLj8Zw/f/7ixYt6vV6WZZZl19fX33nnnampKZfLRRDEAcWsxRAEodVqX3rpJVEUVSoVy7L7WHoHxGg06vX6v/7rv/6zP/szhNDm5uann36ayWQQQi+//PLp06cRQmCtqdXqg5vTh4hOpxsbG5MkCcOw59MC/BoczmPwPF+pVPL5PIZh/f39qVRqbW0tlUoVCoXGkAX4fL5CoVAul1dXVzc3NzEM22cLKYZhGo3GYDDYbDZQtJIk0TQ9ODgoSdL6+vr6+nomk7FarTqdbs9vc7kc7GA1GAxDQ0PDw8Mej0ej0UBrZVnu7OzM5XKxWMxqtQYCAdCLkUhkdXU1FotxHIdhWFtbW3t7e19fH0VRqVTq3r17n332GUVRbrdbEITR0VGv1ws3Wl5ejsViCCGHwzE0NNTe3u7xePZ000qlUigUtre38/l8X1+fx+NBCG1vby8uLup0OovF4vV6aZquVCrb29vRaNTn84VCoZWVlUKh4HA4isXi/Pz8nTt3ZmZmrFZrrVYbGRmBZ2FZNpVKrayswMzNYrEMDQ0Fg0G4xW5wHMdxvPFFyuUyTdMw+zWbzfCS6/V6tVpdWlpaWFhobJqyWq3Dw8M6na5cLk9OTj58+LBxzY6OjjNnzjidToPBUCgU0un05uZmqVRCCGUymVQqZTAY3G73yMiIz+fT6/Ucx5XL5ampqeXlZTjNYDD09fUNDw+DHoQH0Wq1DofD6/Wurq6urKyAEkcIeb3erq6uUChksVimp6dv3749NTUFavf8+fOjo6N6vR72L0ej0Wg0KgiCRqMZHh7u7u72er1gAsCfGo/Q1tYGd29S3oBDEDNwM5TL5XK5TJJkb2+vKIoPHjzIZDKZTAYcBo2TA4EAhmFgEK6urup0OpPJdPBckTiO63S6/v7+er0+NzeXSCRSqRRFUY+LWSaTWVpakiTJ5/ONjo52dXU1mkGSpMViGRgYWF9fz+VyxWIRIcTzfDqdvnnz5meffXb//v1SqYRh2MmTJ8+fPw/W7/Ly8uTk5K1bt2RZdjgcDofDZrMZjcbNzc3r169/+umnd+/elWW5q6vrzTff/Na3vmWz2cBp0WhStVpNJBL37t2LRqNarRYs6o2NjQ8++MBms3V2dlIURVFUoVCYn5//8MMPX3rpJYvFcvfu3bW1tXA4XCqVbt68OTMzs7y8TBBEvV4HqZBluVKpwJWnp6cTiYTf73/rrbcuXbrkcrkwDPuq8ytBEPL5/OTk5Ntvvy2KIgxrXV1dDofDaDQmEol33nnnt7/9LVxWFMWXX36ZpmmVSqXX67PZ7Pz8/KeffppKpUiSjEajCwsLdrt9cHCQIAidTkdRVLlc3traunr16tWrV3d2djAMc7lc3//+9x0OB+iFmZmZRCJhs9kGBgacTmckErl69er169dXVlYQQiMjI6+++ipCSKVSzc3NTUxMzM3NYRi2vb1tMBhCoRCGYdlsdmJi4pNPPrl+/TrHcTRNv/nmm9/5znfAEM1ms7du3XrvvffAZUIQxJkzZ4LB4EF8SF+PwxnNSqVSoVBQq9UGg8HhcASDwYGBAYTQ9va22Wymabpxplardblcvb29JEmura3p9fpAINBwAB4EDMP0er3FYrFarRRFsSy7Z5okSZIoitlsdnNzk6Ion88HnWB3b9Nqtb29vV6vl+M4m80mSVIkEpmfn+c47syZM2+88QZCiOO45eXlTCaTSCRA3eZyuVwup9PpPB7P5cuX3W43qMx8Pv/aa6/95Cc/gSF9fX0dpMjj8VgslsZNKYpyOBxgoIqiCFMpQRBAT1UqFUEQwO2BELLb7RaLRafTQcs1Go3NZoOZpNFofO21186fP9/e3r69vY1hWKlUkmX5zJkz3/72t7e2tnZ2dubn541GYygUMhqNj+ugg1Cv18vlcl9f34kTJ0Ct0DS9urr6xRdfeL3ev//7vzcajYIgrK+vI4QWFhbMZrPb7ZYkCUZCgiBef/31l19+WRCEhYWFYrEYi8VAMa2vr9++fdvtdv/VX/0VvI1KpaLRaB4+fKhWq3e7tYrF4tra2s7ODkmSf/mXfwkdqVQq5XK5UqnE8/zw8DBCiOd5k8l09uzZ0dFRk8kUj8cjkcjy8nIgEPiHf/gHQRCq1er29vbNmzcNBoPX64UXznHc8PBwf3+/0+n0+/02m615KXAOZzTL5/OZTEan04GX3OPx9PT0VCqVZDLZ3t4uy3Kji5MkaTabBwcH6/X6zZs3Y7FYJpP5Sp5x6HM0TcM0nef5PRNfcHLA0kJPT4/b7dbpdDCqwIoCwzDVahUhBBapVquVJKlcLsNMLxAInD9/niTJSqXym9/85t69ewzDiKIYCAT6+vo2NjasVqvX6+3v70cITU9Px+NxDMNOnTp1/vz5YrE4NTX1b//2b1tbW7FYDNRBo2EajcZsNlMUJcsyTCyhVXq9HsOwarXKcVytVisUCoIgeDweq9VKkiRBEDBLAb9FrVbLZrOjo6OnT59Wq9WZTAbDMFEUeZ4fGBg4ceLE9vb2+Pj422+/HY/HGYbRaDRfT8wkSYJmnD59OhgM0jSdy+Wgy46NjV26dMlqtXIc9/Dhw/n5+aWlpWw2K4qiLMuCIBSLRbvd3t/f39fXZ7FY3n333cnJyUKhsLOzA1bD4uLi6dOnT5w4EQqFcByPx+Obm5uxWGz3xn6EULVaTaVSDMMQBHHp0qXBwUEMwxYWFr744gutVovjeCgUkmU5Eom43e6XX37Z6/WCeb++vl4ul8PhMCS9SafTv/nNb2Kx2NramkqlAsUqy3IwGHzppZfa29t3jwTN4HDELJVKbW9v2+12r9cLY5rf75+bm0smk+VyWRCE3XNZlUplt9vr9bparc5mszMzM4FAAGZNhwuMe41ceQih1dXViYmJ8fHxSCSCEPJ4POFw+MKFCxcvXuzr6wOfDUVRWq1WlmV4EFiNefzioihWq9XNzU2O40KhkM1m02g0Foulra1tcHBQlmWGYRrrBwBMigiCkCSJYZhMJgMrhO3t7cVikeM4lmULhcL6+nq1Wg0EAgfPyGI2m30+n8VioSjKarW6XC6Xy/WMrm21Wk3TNE3TMKKq1Wqr1Xr69OmOjg6TyWS1WtVqtSiK4FPZbSlQFBUMBt1ut8fjMRqNJEm6XK62trZKpfLEG+l0OvA8DwwMWCwWjuOe1iQcx1UqVWdnp8VigYY97u+VZRkWSHt7e7u7u41GI0EQKpWqt7dXluVMJgPfFDQsTdMgrs/yog7Cs4oZ+M2TyeTy8nIikYjFYpFIhOd5hmFisRiGYblcjmXZ3a48HMdhrtnR0ZHL5ebm5jQaDdgbB7ypJEkwTddoNPvM62B5F/QWHCFJEla98vl8pVLhOG5zc7O3t1eSJBjT1tbWMpkMy7KCIAiC8ODBg1Qq9cQPD20olUrpdDqdToOFiRDKZDKrq6t6vd5sNu9ZWAcxAwd9vV5Pp9MURfE873A4QCxZlmUYJpfLEQRhs9kOrmL1er3H46FpGvz1Op1Op9M9owkEcy1ApVLhOK7RaDQaDY7jS0tLqVQKIVSr1VKpVC6X272WQJKkw+EA45aiKJiS0TRdq9UwDCMIwul0Dg4Ochw3OTm5sLAAhklbW1swGCQIYvfbBtvbbrczDHPv3j2wRd1udzAYJEmSoqg9o1/jo9RqNY/HAwEMarVakiSXy5XNZsHvL8sySZI0Tev1eq1W+0RP9eHyrGIGFnwymZyamlpbWyuVSgRBQP+22Wy9vb3JZDIUCsGqF9B41y+99NLdu3dv3LjhdrtNJtOeV/Y0wCyBHqnT6fZ3n0DcRsOqDIVCXq/31VdfLRaLGxsby8vLCwsL6JEKjEajv/3tb+/evZtMJsGDV6vVHA7H2bNn97nF8vLygwcPQGWiR3onHA6bzWYwTRuAmNntdhg2wd7TarVGo7FarVar1VqtJstytVoFLXtwOYFB7HAtApVKpdPp9Ho9jGZwMJFIXL9+/ZNPPrl16xZ69C38fv/IyEjjhwRBQGonjUazpweD9dvd3W2xWP7whz/88Y9/XFtbIwiiu7v7+9///ltvvbXHvoWl0Xw+n0wmf/vb3y4uLmIYdvHixR//+McnT558XA2JoihJUqVSqVQqu7sThmE0TZtMplwuB0fUajU83fEYzcDIYVnW7Xb39/fDLAjDMOguBEHk8/mNjQ2TybT7VxiGURTl8XhcLhdN09vb2xAyc8BZBNhX9Xodx3Gwu/ZcXKVSmc1mj8fDsmw8Hu/t7bVarQRBkCRJkqTBYNDpdNVqdWdnB8dxUIHRaHR+fl6v158+fVqn08GEJxKJQKDTPo0Bv7nJZDIYDI2DXq+3t7fX5/PtORkWMHw+XyaTAQ8nrNrRNF0qlcCTxHEchJLt1k37A5rrcLsLuChhAQDDMJ7nC4XC2tra4uKi2+3+6U9/CqNEoVCA5f7HG/O4hxOuCW6w06dP0zSdTqdrtRpJkjzPX79+PRwOm0ymhl0DigmcZBqNZmtrC/6xurpqNpsfH7FxHIfxHEbdxnHQmNVqdbfFhD+iBZEuzypm2Ww2EonU6/Wenp4f/ehHfX19EKkoy/L9+/fn5uZSqdTq6mpPT8+eH0KPd7lcPp8vlUotLS2xLOv3+7/0juDLqlQqkiTB/GGPBwXenc1ma29vX1paisViDMO4XC6KohovFOb34OWDiMrl5eXFxcXOzs7BwcFTp05pNBqO4373u99NTU09cZIDPYYgiIGBgZMnT3Z1dfn9friaIAiNDvr4D41Go8fjyWazIGbggzEYDOCbKZfLPM9D+nWKovaZqLQYjuO2t7c3NjY2NjZ+8IMfvPXWW7ACtrKyMjMzc//+/YNcRJZl8Iep1erz589funQJphVra2uTk5NXr16FRdGGhQKjpdPpdDqd586dQwjxPH/z5s3/+Z//sdvtZrPZ5XLtvj5oUrAGwRMGdxRFsVgsFgqFQ1dGB+Tri1nDb762tgYrtuD6a3RlmCFks1lZliFi+PGLuN3uCxcufPbZZ7Aiqdfr94+XAcfD7OwsOKwDgYDL5XriaGO327u7u2GteWJiguf5oaEhCF+EkKXx8fFoNLrHS9EALGEIIOzt7X38BDCN/H5/Lpe7f/8+aGhBEOLx+O3bt1UqVXt7e3t7O6RQ3w1JklqttlqtJpPJer2u1+spirLb7bIsz8/P5/N5o9Fot9sft7ieN0RRZBhmbm5udXX1gFFOEOm7tLQ0NTU1NDTU2dnZUGGgWcBAbUhCKpW6f/9+pVLBMGxwcBDWCQmCADeVTqd7/BVBeBpMIFUqVX9/P0hyJBLZ2toaGxtzu92tf7FfX8xEUQTn8tbWVjgcbmtr2xPtDlNbWA7KZDJP/BI2m02n0y0vL8Oi4R6TWpKkYrEIPlyYcwuCUKlU5ufnM5lMW1sbOJ2eOCcxmUxgzqXT6VgsBjNGEDOWZSHMolgsut1us9kMlptWq83n86urq+BzZxhmZ2cHtgjU63VZlkFZFotFWZbb29vNZnN7ezvHcQsLC4uLiziO1+v1zc3NmzdvWq1WvV6/R9cCIGaiKIIPRhAEmCSgRxPdQCDw+NI2emQRYRgmCEI2m00kEg6H4ystOT4L4AKhKIokyVwuNz8/r9VqIRAZViD2eJueCIxOOzs709PTPM/ncjmbzQbh3RiGBQIBcAw2NDXEwUJMSb1eB0WWyWRgogVuTHgt1Wo1FotRFOV0Oq1Wq8VigYCeyclJSZLy+XwikZBl2ev1ulyu1g9oX1/M6vU6wzD5fD6fz8OK7e5QdwzDIEhKo9GUy+VoNPrEQHiYZ4fD4Vqt9sknn+z5a61We/DgQTKZfP/998EylGUZXLrhcPjcuXPt7e1P8xPAAt2VK1d6e3tnZmYePnz4X//1XzCiiqJI0/TIyMjly5cHBwdh00dXV1c+n3/33XdjsZjBYOjt7R0eHvZ6vbDSBT5iGHY+/fTT9fX1er1+9uzZzs5OSZK2t7evXr36r//6r7IsGwwGiM8aGxvbvWi2u2F6vd5oNFosFnAUwVQe/B+yLNvtdrvd/nhXAJcdLEZ/8cUXiUTiypUrHMe1pt4qWPgej8dms928efO9995zOBw+n6+jo8Ptdi8tLdVqtXq9vr/YwyN0dHScO3fu008//fWvf61Wq41Go9PpPH369MWLF/cM/na7vbOzE1Z9bt26xTAMxNmcOnXK7XaDCQDCv7a2trS09N3vfvfy5cs+nw8CQWZnZ//xH/+R53m1Wj08PHzhwoX+/n6j0Qjmeiv5+mIGixherxdCmRwOx55RBeyo4eFh2B8Fzlmz2Qwh2I2L4DgeCAQQQjzPS5LkdDpBIJ1OZ39/P8uyVqt192U1Gk1PT8/g4GBHR8eeP+1pnkajCQaDJpNJEIRarZbP5xsedpvNNjQ0dOLEic7OTlgV8Hq9AwMDq6urILd2u93tdoOBYTQaYcQzm83d3d2JREKlUkHUPCwAgjoH+9PpdJ48eRKk94mRr+C2aW9vB0EKBALwvEajsbOz02w2B4NBuB2s3YHz2uv1wmJRMBg8c+YMQgjkX6vVDg4OWq1W0Ggw7bHb7SMjI+Be2n/pX6/Xd3R0QNhXYzsFCENbW9upU6f8fj8EWxEEQdN0IBA4c+bM/Pz8+vq61Wp1Op09PT2SJOn1+ra2NpVKZTAYPB5Pf38/eD7hGS0WSzAYtFqtDocD5heyLG9ubkIktNFo9Pl8EEpOUVStVgPLyGAw+Hw+l8sFCz+gYRFCfr+/v78fNm2IomixWMLhME3TEDypVqvBj3/y5EmI9qjX61qtdmRk5OTJk/BBJUkKhUKCILjd7samx6by/6tvhmHYz372s1/84hcHWRiFmWWtVmNZVqfTwVxid4vBQgBfRcMEAm1HUdTuLigIQr1eZ1lWlmVYUiMIovaIPfs7wFUF4X8HMbKhkUBD14KVCCYQtFkQBJ7nIYQHIQQ6snEyrM+Cs6RSqdTrdQjPI0kSBKxWq4G7QqVSUY942vcDxxc8l1qthhuBa0cURfCdwqNB7JUgCCRJwqQFPGZo1+DGsixYsxCe11hUhED7p3liGm++8VrAQdf4sjzP12q1xoOAW4vneZZloe8SBNFoPLhtoN/Dm4TtBQ0vJQx0MK2CjlEqlUDrweuFHZxwl1qtBtt8YNWLZVkIqYN5B4SwkiSpVqsbqzs8z4uiqNPpYB0MtlaxLAs2AoTCarVaUDrwV57n4TqHbkNGo9Gf//znoij+8pe/hIn91x/NwG8OgQJPOwH2tH7ppVQqFbzo3QfhA3/t5jUAifrSrS7Qhv1XFGAA33MOuEy/UsgFaIo9zws+lcfvuKfljz/LHiOisY58kJbAF3y8eU98GxDmtv+VQTb2PBq8ot1HwO3+xCtgGLbnvuBLe9rJIIp7ju//0XfbU61ByQWioNB0FDFTUGg6ipgpKDQdRcwUFJqOImYKCk1HETMFhaajiJmCQtNRxExBoekoYqag0HQUMVNQaDqKmCkoNB1FzBQUmo4iZgoKTUcRMwWFpqOImYJC01HETEGh6ShipqDQdBQxU1BoOoqYKSg0HUXMFBSajiJmCgpNRxEzBYWmo4iZgkLTUcRMQaHpKGKmoNB0FDFTUGg6ipgpKDQdRcwUFJqOImYKCk1HETMFhaajiJmCQtNRxExBoek8uYwgVHxMp9Mcx0G18tbUDgXK5XIul1OpVCRJGgyGL62IxzAMlKWFerBarXafpsqynMvlWJaFQn4URe0p1iiKIpTVzuVyDocD6tO27Nmh8Dk8i16vf7zanSAIHMclk8lcLsdxnCiKcBxKExqNRpfLZTAYoEzm49cvlUr5fB6q6Wq12ieW7X0iUKk0n8/v7OxAdUyEkEajsVqtUFL9IJVTG5eCSu3VahV6V6Nm6jNSr9drtRpU0IWecPBWNZUnv2We5xmG+eyzz5LJ5IULFzo7O61Wa8tavLW1devWLb1e73A4BgYG3G73/udHo9F79+6VSiWLxfLqq69CEeSnfTZRFOfn5zc2NgKBgN/v9/l8ewpJQkd/8ODBrVu3XnvttTNnznyl7viMMAxz586dYrFoNpt7enp6enr2nFCpVNLp9DvvvPP555+nUikokIsQwjAsFAqFw+E33nhjYGDgabomFovdunWrra0tEAj4fD6TyXTAhtXr9Xw+f/v27XfeeWdrawvKRjudzosXL164cOH8+fMH7x71er1SqXz++efr6+sXLlzo6emxWq2H8obL5fL29vbNmzd5nn/ttdf8fv/+OrdlPPnZZFmG0Swej5dKpXq9vrtEdbNhWXZnZ8doNKrVatCaTwMqVieTydXVVahQnM/n7XY7VDF+4k9kWWYYJp1Om81mjuMefy5RFDmOy+VyGxsbDMOIotjKZxcEIZfL5fN5qDr9+AlQSjudTmcyGavVCj0JBmRRFPP5/MrKChRuf2JJ4Wq1urOzA8XpGyPh/kiSVCqVEonE9PT0xsaGzWbT6XRQaJskSY7jotEojuOhUKitre1po+ieC8JoFo/Hi8XiIfYuQRCq1WoymeQ4jmXZRqnxI6dFSrpJsCybTqez2WyxWITC5KVSqVwu719C+gWAoqj29vY/+ZM/GRkZcTqdKpVKkqRr165NTU2trq4SBOHxeA6lcjdCSBTFVCr18OHD3//+9z6f76c//WlbW5vFYkEIJZPJ69evr6+vLywsvPLKKy6Xq1GcXmE3BxIzqFcfjUYjkQhFURzHRSKRQqGAEAoGg2DbuFyucrmcSCSWlpZUKpXJZJqfn9/a2jIajaFQaHR01OFw0DSdz+dhkCRJcnBw0GAwEASRSCSSyWS1WpVlWafT3blz55NPPlGpVHa7vVarnTlzxufz7akaDlSr1Xg8jmFYMBhECGk0mlgsRlHUIZq48OzpdHp+fp7neYqilpeXNzc3EUJWqxWevbu7m2GYbDa7tbVVLBZVKlUqlVpZWbFYLF6v9+TJk8FgkCTJVCq1tLREkiRN0z6fz2w2i6IYj8fn5uZsNpvL5WJZNhqNXr9+fWtrS6fTpdNpHMd9Pp/Van28YQRBUBQFhczVarUsyz6fL5fLbW1tMQwD07ZnfwkwqEaj0WQyOTw83NXVFQwGLRYLfA6n0zk6OqpWqx88eJDP57e3ty0WiyiKc3Nz0B673W42m8EOn52dRQh1dXXBexgfH49Go/V6fWdn58KFC5VKZXNz02Qy4Ti+sbGxs7NTLBZDodDJkyfhDVQqlWQyGYlEHA5HOBzWaDQYhuXz+VQqtbW1ZbFYuru7p6amxsfHJyYmOI4jSfLs2bMvvfSSTqd7vAZ8izmQmMEov7y8/OUQWscAACAASURBVMEHHxiNxmq1+sUXX8TjcVEUT5w4cfHiRa1Wa7FYGIZZWlp69913tVptIBD4+OOPZ2dn7Xb7qVOnDAaDSqXS6/X5fH51dfXevXt6vb6trU2v1xMEkUwmZ2ZmwNx3u90LCwsPHjwQBMFqtcIUAqaze1oly3KlUonH4ziOd3R0YBhWq9USiQRFUYODg4c1q4ZBcmdn57PPPqtUKkaj8datW1NTU6Ioer3eixcviqLY3t4O1tqtW7e2t7dNJtPa2tr4+Ljb7e7r64OXYzabU6nU+Pi4Tqdzu900TZtMJlEUY7HYJ5980tnZOTw8XCwWl5aWpqeno9EohmEGg6Grq8tgMDxRzB7HZDI5HI5EIsHzvCAIkiQ9u5iBGba+vp7L5c6ePdvX1weDJ/yVpulwOFyr1ebm5kqlUiwWIwiC47jx8XFRFE+fPq1Wq00mE8/zqVTqxo0bGIZRFBWLxe7fv7+wsLC6ulqr1QiC6Ojo2Nra+vzzzz0eD0mSU1NT0Wh0e3t7bGxMEASCIAwGQ7FYjEajH330UV9fX0dHB0EQOI5ns9nFxcW7d++GQiG3272ysnLnzp35+XmO4wiCMBqNIJDHQ8wayLLMsqzBYPjbv/1beMhYLDY1NdXf3+/z+er1Osdx6XTaaDS63e4333zzL/7iL7a3t2u12vT0NI7jLpdrf3PZYDAMDg6q1epcLqfRaJxO5yuvvNLX1/e4EQiDTKlU2t7e9ng8gUCAoqhCoQDjSaVSIUlyj2/j2QHP0He+850///M/z2azyWRyY2NjeXl5dHS0Wq3yPB+JRJLJ5CuvvPK9733vxz/+cSwW29nZicVier1+bGxs/4sTBBEKhUwmUyqVCofDBoPh/Pnzo6OjYJ59KbIsp1KpeDxuMpm8Xq9OpzuU8Rymu+VyWZIks9lsNBp3O2YxDFOpVFqt1mQyVSqVlZUVq9W6j2cYx3GVStXd3e10OhFCbrf77Nmzo6OjwWAQjKN4PK7Vai9fvvzGG28UCoVUKnXv3j273W6xWGA2+DRUKpVOpzt58qRKpYKTr1y5Mjo6ajabj1zG0FcVMwzDCIKw2+2vvvqq1WpNJpPvv//+3NwcwzCVSgU98h/gOG6xWM6dOxcKhebn52dmZqanp+12e7VaFQRhn+tTFOXxeCRJGhwcNBqNHo+nt7fX5XI9fiZ4AsrlcqFQ8Pv9Ho9Hp9ORJKlSqTiOYxiGoqhDFzMcx9Vq9ejo6OnTp7e3t+/du7e6uprP50ulEs/z4Crged7lcp0+fXpwcPDevXt3797N5/PRaLSnp2d/lwOO4zabzWw29/f3u91um80WDof9fv8TT4ZZ6NLSkiiKYCHLsrywsJDL5UKhkN/vf3yh4utRr9er1Sp0cZ1Ot8dxh2EYDFAmk6lUKqXTaZZl91+AwXHc6XQGAoHFxUVRFEdHR8PhsMVigV8JgqBSqUZGRnp6eliWvXHjxuLi4s7OTjqd3v9rEgShVqv9fj+O44lEguO4sbGxrq6u59rT+DQwDHM4HH6/n6ZpcLi7XC6Xy9Ww6MAy9Pv9J0+edDgcJEn6/f5cLvfw4UNYDavVaofSbuhnlUpFlmWwykiSZFnWZDLJspzJZMAqO5R7NTCZTDBPgPUieHaj0Qh/ValUPp/P7Xb39/d7vV4cxz0ez8DAwK1bt9LpdKlUeqJj8+tRq9XW19eXl5cRQrCkCQ79gYGBQCAQCoUOXcXsA7wN0LDPeKlgMBgKheCt0jTd1tbW0dEhy3IikXiitj0ufGUxM5lMdrtdo9GoVCqNRkNRlEajadgnMHZbLBa3263T6XAcBxWIEKrX66DyD6XdPM9nMpn19fX5+XlYACAIolgszszMGAwGkDGv13so92rQmFYRBEGSJEVRFEU1bBKCIGBgsdlser0eIQTrxQghjuPq9foh+pdxHNdqtS6XS6/XNwYuj8djsVji8bhare7p6aFpujXLfTiOkyT57DYqhmEWi8Xn84FTByGk1WppmoapygGXH55PvrKY6fV6k8n0NHuXIAitVttwfx1GC58MRELMzc1dv379ww8/hPVocNUMDAzAiHroNwW1/TRHOY7jNE2D+DU7cAQc+m+88cbIyIjD4VCpVLIsb21tRaPRGzduzM/PG43GQCDQslX1wwJ6VyuH4tbwlT8DhmH7GP1gOcBKMUVRMFOqVqssy9br9af9qlqtMgyz/0p0A1g6z2az8/PzOI6/9dZbRqMRBg2IEeN5vlgs7uzsZLNZmqa/NFbr4MCz77PwDVFIPM/DojZMbODg40MZeHFYli0UCl/Vlgbfg16vNxqNoPVkWQYPDUmSjQnVs68fwrxLr9fXajWGYUql0u4IJnDDFovFra0ttVodDAYNBsPjF+F5Ht4DSZL7m80sy5bLZUEQ4Mq1Wq1YLD4ecQZIklSpVMrl8vM/0B2ythNFEd5UsViEAa1arVYqlVqtBv5l6KOiKAqCIIqiJEmSJJXL5Ww2e0CrA3pzJpNZWloyGAw/+tGPurq62tra0CPv8/j4+Ntvv51Op1OpFEEQhyhm+yOKIsMwCKFqtVqv1ymKqtVqpVIJRAimT+jR6gg8OMdxpVIpk8mAA+lZwDBMp9OZzWatVgvxh/t7mw4IiJnJZGIYJpVKQfhiQ9WKolitVsHh3NXV1dnZaTQa4VlA5YG6gfdQLpf1ev0+YgYrNI1YTZ7nK5UKwzAOhwPc93BZ6DyyLENAD0TqPPuTNpVDjtAXBKFcLmcymVgsBmopnU4XCgWapuELaTQaWJGMx+PZbBZclDs7O5ubmwfsapIkFYvFfD4PXdnhcMBECD3S8RqNRqvVVqvVra2tZ+++B0cQhHg8Ho1GE4lEqVQCT8zGxoZOp2trawNbCMOwXC63trZWKBRYloUOGolEMpnMM95dlmXw9ZVKJVEUtVrtoZheMLvu6upyOp3j4+Off/55IpFoBFIWi8X79+/Pzc3V63Wj0QgLCfCncrm8traWyWQgVjuRSOTzeZZl9x/NMpnM5uYm6CaGYfL5fDab1Wq1Xq8X4iIymczOzk4qlSqVSizLbm9vwzrhsz9pUzl82x3DsGKxuL6+LooiTdPr6+vgc29ra6NpmmVZWJLO5XKTk5MQmJdKpXZ7CGAIYhimVqtBeKter29MMyRJymaz2WxWpVIZjUar1dr4tOBwBx8MxC54PB63232QQLtnB4xAeHaSJEF+UqmUw+EIhUJGo1EQBKfTubKysrm5OT09DQ+YTqd3PzuGYWq1ularQfQgvLTHB2RRFMvlMqxiN0Je0ul0MplUq9UOh8NgMByWmGk0mmAwWCqVFhcXY7HYw4cPLRYLvHOGYRYXF0ulktfr9Xq9NpsNIUSSpM1mYxhmZWVFrVbD4n42m23MGmAwJAhCFMXt7W1Y2oK/VqvVVCo1MzOztbVVKpVgGdDpdEL4OEz78/n8xMQEuLtTqRQYSo3WwjS1UqnEYjGapv1+v1qtPpS1jWfhkMVMo9HY7XZJkqLR6IcffpjJZCA05tVXX+3q6iJJ0uFwyLI8ODh4+/btX/3qV0ajsaOjA8IdGu9Co9HYbLaPP/54fn6+Xq9jGNbX19fwmwuCsL29nUqlbDab1+ulabrha4FlPbPZ3N7evry8fP/+/Y6Ojvb2dpglHu6TPg5Jkh0dHSqVamFhYXx8fH193ev1dnd39/T0DA8PQxzMuXPnGIZ5+PDh/Py8VqsdHh6WJGlsbCwQCMBFIE4tm81evXo1mUxqNBpY+t9zL3Dor6ysgFiCEoHx5OLFi7CacljWMkEQLpdLpVLRNP3w4cPf/e536XS6WCwihMxm8+Dg4IkTJ06fPu10OuFDWCyW0dFRnufff//9O3fuyLJ86tQpt9ttNBrNZjMImFqt1mg0LMt+/PHHa2trb7zxRrlcRghptVqO4371q1+lUilBEMbGxl5//fVwOAzefJ7nL1y4MD4+/s///M9utxv2GTgcjlQq1fgEYDNvbm6+88476XT6jTfeMJlMLZs4PI0ndz6CIHQ6XV9fn8PhgJVfWBQ6ffp0R0cHLFKBGzcYDF64cCEUCtE0DYEzFEXRNA3RT1ar1ev1DgwMdHd32+12HMcpirLZbCMjIzCXUKvVPp8PFCFEV1EUBXtAMpmMVqv1+Xx7AhpgfbyrqwshBMEfu3UVrIwPDAxQFGW3220221cdytRqNbT/woULfr8flissFsvIyAgsFcL6BIRcjo2NWa1Ws9mcz+dxHDebzYIg+P3+crmsUqlCoVBfX19nZ6fT6YTZhc/nC4fDlUolkUgghEKhEAS++P1+m80GzxIMBoeGhhiG6ezs3K1EAJIkTSbTyMiILMv5fH6378RisQQCgaGhoVAo1Ajbf3ZgARrkVpKkQqFgNpthFgqvur+/PxQKNboyhNrBMun29na5XO7s7AR5sFgsDodDp9NpNJquri4wAu12e+MTWywWmqbr9TrElw0PD584ccLpdIJ31+FwjI6OgpvNaDQ6nc7e3l6DwZDL5QKBAIzeZrN5aGgIvpHNZttnS1QrwXbbyhiG/exnP/vFL35hs9lkWeY4TpIkWBLBMAyceBCCDUfAu8XzPEmSkiRlMpnJycn3339/aGjohz/8oVqthpPVajV0IHjgxq/ATlCpVI0JLlh9YH3BWhMEc+x+WeDBg/m9SqV6fL8pTL7BxQLrWrtPqNfrH3744fLycnd3d1dX1+7+0bg+eCl4nm+Ew8GMHOZ+0FpoJM/zoG42NzeXl5fv3r1LEMQPfvADt9sNJ4PabrwuhBDHcY3tmGDPyLKsUqlUKhW8IrhsrVaD38Id9zSvVquB93L35wOTCdr8NBm7d+/ehx9+2NHR0d3d3dHRccBoSbgvfDhoPNhp8OwkSe5+yXAm7LAEFwh0IUmS4Hx4TOgDjet8/vnnf/zjH0dHRwcHBz0eD3gsYWF2t/+j8XJgVISXBt41+I7gWGp0D4qiGs6nlhGNRn/+85+LovjLX/6yt7cXPW00g5btidZ9PEoQwzCNRgOPtzsCACZIsHL6xIs3fvU09vEQYhi2f7wiTCe+tp0AlueeBoAY7DkN9Ejjv+iRD0an0z1x8QfOgUXtfRoAl234dZ7YPFiZ/OoP9/VpxFV96f4aOPNLP0HjBNiuDoIE1pDZbH5iJGdDqp/m4kePDLEDPVILObQZC8xr1Wo1+Lhar0IODowSoPIPq5Hw7BqNpqGtD+Wyhw7044aFctTN+f9ohCA/bw07LA5NzFQqldlsDofDkBxit2/wuYIgCJgLGY1G2O12KJeFbfYw/7Tb7c/t1sZAIPD666/TNG00Gp8TrQ+27sDAAE3Tdrt9t+v4heHQJAHHcbBkmhHldIjgOA5r2YcLTdM0TR96FOWhY7PZwO3+/ABmMCwJHHVbmoWSQE5BoekoYqag0HQUMVNQaDqKmCkoNB1FzBQUmo4iZgoKTUcRMwWFpqOImYJC01HETEGh6ShipqDQdBQxU1BoOk8tI9gAPYo62/2nQznYiGR/MQ4ihBrR5ZCYqXkHcRyHnSOw/Qx2nb3ABxFCjQpY+x/c83PIx/wsB/dP5XZAnixmKysrc3Nzs7OzsVgMIeT1esPhMEVRgiDMzs5CPRSPxxMOh2FP+MzMzMbGBkLI5XINDQ3pdDpZlmdmZtbX1xFCTqdzaGgI9kfNzs6urq4ihBwOx9DQEGwcmpubW1lZQQjZ7fZwOAz5CObn56PRKEII0lxDCuGFhQVItWuxWIaGhsxmM0IoEolEIhGEUGOLAEJoaWlpcXERIWQymcLhMMTLLi8vLywsIIQMBsPQ0JDdbkcIRaPR+fl5hBBN00NDQw6HAyG0uroKFUz0en1jk/za2trs7CyUrQmHw5CgYn19fXZ2VpIkiqKGhoY8Hg9CaHNzc2ZmRhRFjUYzNDQEQbGxWGxmZkYQBJIkw+EwRDBvbW3NzMzU63WVSjU0NASB1/F4fHZ2FuotDA0NQQqDRCIxOzsLOxqHhoagCA5U+WBZFsOwcDgcCoUQQjs7O7Ozs5BuKBwOd3R0IIRSqdTs7CzkAhgcHOzs7EQIpdPp2dnZUqmEEOrv7+/u7kYIZbPZmZkZSEPQ19cHpQxzudzMzAxsmu7t7YXdivl8fnZ2Np/PI4R6enr6+voQQgzDzMzM5HI5hFB3d3d/fz9CCDLVQjWSzs7OwcFBhFCpVJqdnU2n0wihjo6OcDiMECqXy7Ozs5B3AAojYhhWqVRmZ2d3dnYQQrC7HMdxlmVnZmaSySRCyO/3Dw4OQsanaDQKKYw6OzvPnDlTqVSgQE/jRmfOnKlWq+l0emVlBW7U3t5+5swZqACxsrICN2pvbz979mxXV9ezR8M/WcyKxeLm5ubU1BT0VKhLotPpBEGYmpqCngo5PPR6vSRJ09PTc3Nz6NGue4PBAGI2MzMD76WRantmZmZqagreC03TICczMzMPHz5ECEGNGJCT2dnZBw8eIIQgXxKIxNzc3L179xBCkNUYKh7Mzc3duXMHIeR0OnU6HXSvubm5iYkJhBBUk4FkTPPz87dv30YI2Ww2rVYLdfoWFhZu3bqFELJYLJD1Dc6EgyaTiaIoyJ0EZ8qybDQaIUUXQmhxcfH27duQX0ij0cC+XTgoCAJk9odRKBKJjI+PQ/WmRsbCpaWliYmJWq0Ge9Xg/Uej0fHxcZZlYYsnjGarq6sTExOVSgU2pIOKXVtbu3PnTqlUgu0ksPloY2Pjzp07IBJwMkIoFotBQn/0aGssQmhra+vu3bsgErIsw5bNRCJx79496KmSJMHu3mQyef/+feiU8FwIISglAZ2S53nQpOl0+v79+9vb2wghjuNAk2az2QcPHsTjcYQQy7KgSfP5/IMHD0CVVyoV6CGFQmFychK0dqlUgh5SLBYnJydBa0MpUxzHy+Xyw4cPQWv39fVBdoN8Pj85Obm1tQU3CgaD+Xw+FotNTk42buT3+6F+zcOHDxs38vv9kA1t942CwSDozWfkyUkKVCoVZI8CPUfTtM1mg1E1k8nAQaj4CAehkB8chAQMCKFMJgMHdTqdzWaDjw1J4/YczOVyUBBEq9XabDboAY2DkNUDDubzeegokFMEtt82DkLCHzhYKBSg90ACH+hAjYMkSdrtdjgIpcnQo5RM0KsaBxv1rOG9Z7NZWZbVajUUrdx9UKVSNdJ6l0qlbDYrSdLug5BaD3bU22w26H+Qo1IURdioBgcrlUomk4GDNpsNduxXKpVsNisIAoZhdrsdDlar1UwmAwdtNht0X8idCFrAbrfDQchXB/rCZrNBn959EJKaIIRqtVo2m4Xt8I2DkLcDDlosFtjdzHFcNpsFxdQ4CHnX4aDZbAalyfN8NpsFvdY4WK/XM5kMHDSZTGBxQK5bUIuNg41a1Qgho9Fos9kgm0M2mwWtajAYbDYb5KeA5HxwI5fLBSVdGYZpXNPtdu85CDWMIMtooVBoHPR4PCaT6Yk5XvfhoEkKzGaz2WwGu2IPYIEc5CAYMEd1UOEIgb51EB4vrv00wKA9yMHnEMXTqKDQdBQxU1BoOoqYKSg0HUXMFBSajiJmCgpNRxEzBYWmo4iZgkLTUcRMQaHpKGKmoNB0FDFTUGg6ipgpKDQdRcwUFJqOImYKCk3nCGojSZLE83yhUIjH46VSieM4m83mcDjsdnvzSuNJkiSKYi6Xy+VyDofDbDa3vo5WqVTKZDLpdDqfz1MUZTKZfD6f0WiEcnBNuinDMLBVhKIoo9F4iNWwoMx8PB7P5/OVSoWmaavV6nQ6zWbz81zd7kg4AjETRRHKnP/+97+PRCKpVOrixYuXLl26dOlS87a0wFai6enpiYmJb33rWydOnNBqtS2uwJZIJD7//PMbN27cv38ftpm/+eabAwMDsHuqSTeNxWJra2sIIYfDEQ6H96lz+ZWAmskbGxv/+7//e+/evdXV1e7u7lOnTl25cmVkZOQ5qfj8/NBqMavX6wzDTE5OLi4umkymoaEhQRC0Wu3GxobH41Gr1VBK/NDvC4k0yuXyzs5OtVpt5JBoDSzLwj75jY0Nq9V66dIlKE45PT0tCMKpU6eaV3WxVqs1dtw2cpY8I1DfORKJLC4u1uv1YDDo9/sJgigWi9FoVKPRwCb6Q7nXi0GrxYzn+XQ6fePGDYZhrly50tvb29bW9n//938TExOLi4s4jsNW/xa3qtmUy+WFhYVIJJLP51977bXLly9vbW3Nzc199NFHDMN0dXVBGfujbuZBkSSpWq3ev39/aWkpFApduXJlbGzs7t27N27cWFlZqVarFotFEbPdtNoFwvM8y7IgTk6n02q1UhTldDo9Hk+xWIzH4zDUtLhVzQZyVCCEgsEgpDyw2WxQR5dl2XQ6DZlwjguiKPI8X6vVJElyOp0OhwNSOYRCoVqttrm5WSgUOI5rpb3wnNNqMeM4rlarqVQqmqZB50FeDbfbXalUksnkiydmsiyDqYwQamtrs1qtJEkaDAaz2Qx5ezKZDHgpjguCIHAcx3EchmGQLATHcZPJ1NbWJgjCzs4OwzCKmO3myEYzyO4E+Rt1Op3RaOQ4jmGYWq0mCMIL84VgTshxXKlUEkXRbDZDnh+VSkVRlNlsVqvVDMNAipjjAs/zlUpFEAQcx7VaLUVRkCoLZpiiKNZqtVqt9sJ8xGen1WJWq9XK5TLkgVKpVJAFjSRJSL0GMnZYM/XnBEEQWJYtFoscx1EUBcm8cBxXq9UURREEwbIsZKE6LtTr9UqlwnEcpO6CWWUjrR2M3i+Srnx2Wi1mlUqlUCgcr171LMiyDOqjUChUKpUXo+fBaFatVmF6dtTNOQa0WszUarVGo3n2bMnHBUgNTRDE8fIl7g8MxSqVqpGzXWF/Wv3hdTodTEhafN8jBJbIwOHxYizawjQMslArknYQWj2qaDQaSLvPcRzP85AKu1qtlkoljUZjNBopinqRYgigTAcEOhEEAT4ehBD4CRiGqdfrJpMJshofF0DM1Gq1JEksy0Iq4nq9Xq1WwS9CUdQLo1MOhVaLGUmSFEVB6BNM/WVZLpfLhUKBoijIYv+CKUiCIDQajcFgwHEcklGDlqlUKuB+tFgsx0vM1Gq1VqsFMYNJmiRJoDWgZIdOpwP341G39HnhaEYzURRLpVI6nS4UCjzPp1KpeDxuMBh8Pp9Op3vBxAwhpFKpIBP9+vp6JpOByOl8Pl+v1ymKcjgchxVq2BpgqgnjVTqdhmoB2Wx2bW1No9H4/X6LxaKMZrtp9dwMVmY9Hk8ikVheXs5msyaTKRqN8jzv8Xja29t1Ot2L5yChKMrn8zEMs7W1FYlE6vV6sVhMp9NWqzUQCDTqYxwXwAz2er2lUmlnZwfqSMRisWQy6XA42tvbTSbTC+PvORSOQMwcDselS5cePHhw7dq1zc3NfD4fDodPnjzZ19fX29t7vDrcAaFpemBgQBTFRCJx/fr1f/mXfzGbzV1dXa+++urIyMix8wnhOK7T6cbGxnQ63YcffvjJJ58kk0mfz9fb29vZ2Tk6OgpDt0KDVosZxA0EAgHQ6G63G8QMyuodL9vp4KhUKoPBEAgExsbGSJK0WCxmsxlq5LW1tZEkebwGcAzDVCqVw+Go1+upVIqm6e3tbZ/P19PT09XVBeW4jrqNzxdHMLITBGE2m0+cOBEOh6EAKfGI1jemlXi9XpfLdfnyZVEUwQMJcTDHcQ4D0VXBYNDn84miKEkSLA9+E77j1+BoDGhQh9808x3qIx8v+3AfYIt0o8Kowj58gzo6rOeYTCYIQzmOY8jXAJzvCCHF9XeEfFPEDEIxhoeH3W63x+PRarXHazr0tQkEAuCQgFD6o27ON5RvipjhOE6SpM/n8/l8R92WltIoCa1whHwjNLqCwtGiiJmCQtNRxExBoekcTZ7GSqWyubk5OTm5s7NTLBa7uroaK5vNuynP82tra2traz09PX6//6gWhavVKsMwy8vLHMcNDg7a7Xa1Wt08H2A8Hs9kMgghCBk9rKxhsEU6lUo9fPhwY2MjnU67XK5gMDgwMNDW1tb6VLPPOa0Ws8bnmZqa+sMf/gDpUM+fP/+tb31Lr9cbjcYm9TnYeBKJRK5duwYRDARBtFjMZFluhNheu3atVqtZrVZ45ObddHt7OxKJIIQ8Ho/dbj8sMZMkqVQqra2tffzxx3fv3l1fX+/q6mrEuDQv7eQx5cjyNMZisQsXLly5ckWr1SYSiUwms7i4iGFYR0eHTqdrcataA2wV+eKLL27cuJHP5z0ezzHd4S+KIuRpjEQiHo/nT//0T202WzabzWQyKysrCKETJ040zzA5jhyBmBUKhWg0WqlUzp4929PT4/F4Pvjgg4mJic3NTY1G43a7tVrtC2ZyQHKrRCIRjUYXFxdjsRhC6JjKGHqUKX11dXVzc3NwcDAcDg8NDU1NTd26dWt7e5tl2fb2dovFokRdNTiyPI1GoxFKRpAk6XQ6fT5fqVR6UdOh1mq1eDx++/btX//619Vq9cqVK+3t7RRFHdMlcpjoQiZGqDFCEITVag2FQhzHxWIxJR3qHo4mTyNBEFqtlqZp6GpGo9Fms7Esm8lkWJaFzAUvEjiOazQau93e3d3d39/f09NjsViOb8AXpMSr1+vw7fR6PYZher3eZrMhhMrlciO93FG39Hmh1UYjx3H7pEMFRwXUkTimXfCJwLZOp9N54cIFhmF2dnYoijpeCb13w/N8I+1HIx2qWq1upENlWbZWqylp9Bu0WswgMaggCNgjEEKg1+VdtLhVzQa2vcCmY57nj7u/u5Gnkef5hkLc/UFfyI/4LBxB1uFSqfTimYXfKMBorNVqPM8rluFBUPI0KnxlGnkaRVE8pl6cFtPqd6TVag0GA0EQoijCrluEkCAI9XodkrC3ftVY4asC0zDIqAnVhtGjssPwQcFCPtaG8eFyBHkaIYEcpEOFL1StVovFIkmSJpMJ8jQqX+h5Znc61FqtBr77RpkYcCMrogb9GgAACzRJREFUu0h3c2R5GsvlMlQfFwQhn8+n02m9Xu90OrVarbKs+ZwDVaNIkpRlOZ/PQxbUUqmUTCYJgrDZbAaDQUmHupsjyzpcKpUymQxkt96TDlUJh3vOAfN+TzrUXC63uroK6VBfpIIBh8IR5Gm02WxjY2PRaPTu3bsTExM4jvM8bzAYurq6uru7X9SAxhcJgiB0Ol04HFapVPF4fGNj4+rVqzAF6O3t7evrM5vNiozt5mjE7Ny5cziO/+Y3v5mdnd3e3v72t78N5d47Oztb3J7WA6WYIDn2MXX2QDrU4eFhjUYzPz9/69atSCQyODh4/vz5rq6uEydOKJ7kPRxZnsaTJ0/SNJ3P56vVKqTocDqdrW9M69Hr9W1tba+//nq9Xvf7/Ye1M6X1aDSaYDD44x//+NKlSwzDmM1mt9sdCARepII+h8URiBnowvb29vb29tbf/cihKIqiKAj/O75AdJXdblc2vByEY2m0KCgcL74pPj2YDnm93hMnTrhcLihGftSNagUWiyUQCMA/FBfuUfFNee+wZjoyMtLX10dR1DdHzAKBgNfrRY8UzVE35xvKN0XMIHgc5kVH3ZaWolarFb/fkfON0OgKCkeLImYKCk3niI1GlmVLpRIE70DV8CbdCJK3VSqVcrlsMBig9G6Ll3dgr12pVKpWq/C8UNy9qaHSLMtyHIceFes4xHhRKFSfz+chJQFFUZACUKfTKetmezhiMYvFYnfv3qVp2maz9fb2OhyOJt1IEIRarTY1NTU5OXnu3Ln+/n7Yx9Gk2z2ReDwO8WUzMzN2u72vr++73/1ud3e3xWJpXr/c3NyERFo2m62np0ev1x/KZWVZ5jhuY2Pjo48+mp6e3tzcDIVCw8PDFy9eHBgYUHYz7eHI3kWlUllbW7t79+4HH3wwPT2dyWRA6TYJWZahEvny8nIulxMEoZW76DmO29nZWV9fj0QipVIJctTk8/mZmZnl5eWmJvOCKuw7Ozv5fP6w7gLbXjY2NhYXF5PJJM/zNE2D1K2srGxsbLAseyg3emE4stEsm81+8cUXH3300XvvvadWq4eGho6qJS2gXC7Pz89HIpFcLnf58uWxsbFUKrW2tnbv3r1SqdTW1qZSqY7R9h9Ih/rgwQNIhwrWwfz8/OTkZDQardVqly9fPqxh88Wg1WIGE6Tl5eXV1dWdnR2tVjswMPDCB+xArmWO45xOp9/vD4VCBoOBZVme53O5XCaTOV41/mBXLszKBgYGQqFQIBCoVquZTGZ9fX11dRWyDje1NsDxotViJooiwzC3b99eXV01mUzBYNDv9x/3AL8vpV6vMwyDEAoGgzabTaPRmM1mi8WiVqs5jkun01ar9Ri9hEY6VISQ3W632WwEQVgslvb2diiKAOlQlRjiBq0WMwjPf/nll0+cOEGSZCwWm5+fb3EbWoksy6D7S6WSLMtmsxkqQYPfz2w2y7LMMMzxmsw08hFAnkbYwQmZC3bnaVS2DjZotZjhOE7TdGMmhuP4wsJCi9vQYiDHK8Mw4PKGiCcIfdLr9bVarVwuN9X9c+jU6/VKpcLzPEKIJEl4IpVKpdFoCIIAB0m9XldSNTb4pgRbHRXg4WRZlmEYyKZ81C06BBrpUGu1mpKn8SAoixutoJGO94WhkWn4qBtyPFBGs+aCYRjkgYLceC9GvwRzV6/Xw/TsqJtzDFDeUXNpiBlU5WxMw8AvUi6XBUGgafp4pSpo5GlECPE8D5M0iLOBPMQajYYkyRdDpxwKipg1HahQYTQaCYIoFAosy8KEDfwi9Xq94X48LqjVasjzJ0kSOBWVdKj7o4hZK1CpVCaTSZbl9fX1bDYLJUtzuVy9XqcoyuFw0DR91G38ChAEAfk2MQxLpVLZbFYUxVwut7a21sjT+MJYyIeCMjdrBRqNxul0ZrPZjY2NjY0Ni8WSTqcTiQRFUZC15ngtMREEodForFZrOp1OpVLRaJQgiJWVla2tLaPRCGKm7CXdjSJmrYCm6YGBAVEUU6nU9evX//M//1Ov13s8npMnT4bD4WPXKSEd6tjYmE6nu3379sTERLFYNJvNkGpleHjYZDIddRufL45YzIxGY2dnJ2yEOUZBfV8VkiQdDkcoFMrlcpVKJZ1O0zTt8XiGhoY6Ozu1Wu3x8tdBzEdbW5ssy1tbW8VisVwuW63Wzs7Ozs5Ov99/jMKgW8MRi1kgEICIOPATHG1jmo3X6zWbzWfPnoUi9xqNxmg0HtPcwxiGaTSaQCDwk5/85I033uB5Hmr90DSthDI+zhGLmUajOV6+7GcBHtZisRx1Qw4HKCD+wivHQ+H46VEFhWPHN8UFArP2oaEhi8USCoW+OVXU/H4/rBZAfc2jbs43lG+QmBEE0dXV1dXVddRtaSkul8vlch11K77pKEajgkLTUcRMQaHpKGKmoNB0FDFTUGg6ipgpKDSdI/Y0bm1tRSIRrVZrNBrb2trMZnOTbgTJmFZWVqLRaH9/fyAQIEnySHz6lUqlUCgsLi5yHDcyMmK325u6NWtrayuVSiGE4A03w6efy+W2trZKpVK9Xu/p6YE6Twq7OTIxgw1XS0tLH374ocfjCYVCZrO5qWJWq9WWl5evXbum1WpdLlfrM5BKkiRJUjqdXllZ+eyzz3ied7lcJpOpqWXHkslkJBJBCHk8HqfTebhiJkkSz/NbW1vj4+MMw8iybLFYFDF7nCMzGiHr8AcffPD++++vra0dVTNaSa1WS6fTX3zxxX/8x38sLi6+APlqKpXKwsLCtWvX/v3f//3hw4dH3Zznl1aPZrDNNp1Or66uLi4uxuNxlmUFQWhxM1oMDN1bW1tLS0tLS0uZTEaSpGOd5UqSJLAVFxYW1tbWGIZ54VNHPwtHkHU4n8/fuHFjZWUFIRQMBq1WKxRHfoHhOC4ej9++ffu9995rb2+/cuVKJBKhKOo4xuYDPM9PT0/PzMykUimKon74wx9+Q4LXvh6tFjPYQOF2u3Ec1+l0oBFf+LIGEFHZ1tY2Ojrq8/lcLlcymRQE4fhuGMFx3Gq1tre3u1wunudFUSwWi8crqWsrObLk3pIkYRg2OTkZj8db3IbWo9FofD6fx+O5dOlSPv//2rtjFcWhMAzDJyEJYkAwaRSNYCeKpLOzzeV4AV6btyB4DYIEtJhGK4VscRaZGbbYneXzmOR9qqDNQXg1JuH8H2VZdjqd6/Xqel0/F0XRcrlcLBZVVR2Px8PhcLvdXC/qfTm40mj3VLPHLTnTsNuh+r4fBIGdk1Lf37En+zS2MebF0xjrqK7/DYAaITNAjswAOTID5MgMkCMzQI7MADnHdzyCIIjj2A4Qqe+TR//E3j3rdrtVVTVj51C7la0dA8A9tD9y/KFkWVYURRiGdt6528W8RhzH4/G4KIrH45FlWQMGFCVJkue5HW42GAxcL+cdOc4sSZIkSdyu4cUatvewMcZO7nS9irfWivM0wK22nEn7vh9FUZZlq9VqOBxGUdSSv4Jpmk6nU2NM7cY7NUlbMrNbEuR5Pp/PwzBsxrWHvzGZTEajkTHG9/2WPKj9htqSmTHG87wwDNv2jf58jh4OteLECXCLzAA5MgPkyAyQIzNAjswAOTID5MgMkCMzQI7MADkyA+TIDJAjM0COzAA5MgPkyAyQIzNAjswAOTID5MgMkCMzQI7MADkyA+TIDJAjM0COzAA5MgPkyAyQIzNAjswAOTID5MgMkPs+RvB0Ou12u16v52Q1QAOUZXk+n9M0fb7yPbP9fr/dbpnvCPzY/X6/XC7r9fr5ypfMNpvNy5cENNNsNuv3+/bYq6rq+cbnYwD/yfO83wekBahxpRGQIzNA7heQc+GtEXeVJQAAAABJRU5ErkJggg==;" vertex="1" parent="1">
                    <mxGeometry x="40" y="360.55" width="150" height="133.45" as="geometry"/>
                </mxCell>
            </root>
        </mxGraphModel>
    </diagram>
</mxfile>